<?xml version="1.0" encoding="UTF-8"?><svg id="a" xmlns="http://www.w3.org/2000/svg" viewBox="0 0 778.41 149.24"><defs><style>.b{fill:#5159a4;}</style></defs><path class="b" d="M778.39,119.36c-.37,7.63-.21,15.3-.05,22.95,.06,2.95-.72,4.07-3.89,4.06-28.62-.11-57.24-.15-85.85,.03-4.17,.02-3.97-2.1-3.97-4.95,.05-25.96,.03-51.91,.03-77.86-.3-.1-.59-.19-.89-.29-9.58,15.71-19.16,31.42-28.73,47.13-1.99,3.26-3.94,6.55-5.96,9.8-2.76,4.46-4.7,4.49-7.45-.01-11.09-18.15-22.14-36.33-33.21-54.5-.51-.84-1.08-1.64-1.69-2.57-1.54,1.33-.81,2.9-.81,4.21-.06,24.46-.18,48.92,.08,73.38,.05,4.75-1.44,5.87-5.88,5.66-7.47-.34-14.97-.31-22.45,0-3.94,.16-5.01-1.01-4.99-4.97,.18-27.12,.09-54.24,.09-81.36,0-18.3,.12-36.6-.09-54.9-.05-3.85,1.11-4.77,4.77-4.64,7.81,.28,15.64,.33,23.45-.02,3.86-.17,5.95,1.16,7.89,4.4,11.26,18.84,22.73,37.54,34.14,56.28,.67,1.11,1.46,2.14,2.53,3.69,7.65-12.53,15.09-24.7,22.51-36.87,4.94-8.09,9.92-16.15,14.73-24.31,1.34-2.27,2.9-3.15,5.58-3.14,28.28,.09,56.57,.11,84.85-.02,3.36-.01,4.26,1.05,4.18,4.25-.19,7.82-.23,15.65,.02,23.46,.12,3.6-1.15,4.43-4.55,4.4-15.97-.16-31.94,.05-47.91-.16-3.82-.05-4.91,1.1-4.68,4.79,.3,4.98,.27,9.99,0,14.97-.19,3.53,1.05,4.52,4.52,4.48,14.14-.18,28.28,.06,42.42-.16,3.88-.06,5.23,.92,5.05,4.95-.32,7.48-.26,14.98-.02,22.46,.11,3.49-.98,4.53-4.48,4.48-14.31-.18-28.62,.02-42.93-.14-3.41-.04-4.73,.83-4.56,4.43,.27,5.64,.31,11.32,0,16.96-.23,3.92,1.31,4.7,4.89,4.66,15.97-.17,31.94,.05,47.91-.16,3.98-.05,5.61,.78,5.41,5.15Z"/><path d="M319.98,45.63c0-2.58-.9-3.61-3.46-3.53-3.49,.11-7,.21-10.48-.03-3.44-.25-4.73,.88-4.6,4.47,.13,3.77,.7,7.68-.6,11.84-.92-1.06-1.49-1.66-1.99-2.31-15.83-20.58-46.19-20.2-62.79-9.23-18.29,12.1-26.86,29.1-25.88,51.19,.93,20.78,14.61,40.21,34.38,47.77,16.72,6.4,41.46,3.44,54.3-13.66,.47-.62,.91-1.4,2.97-1.29,0,4.93-1.84,11.13,.48,14.15,2.73,3.57,9.28,.78,14.15,1.31,2.52,.27,3.52-.7,3.52-3.37-.07-32.43-.06-64.87,0-97.31Zm-54.38,85.79c-20.67,.36-37.11-15.48-37.36-35.98-.27-21.95,14.72-37.84,35.96-38.14,21.47-.29,37.05,15.06,37.29,36.76,.23,20.93-15.2,37-35.89,37.36Z"/><path d="M116.52,102.42c12.97,.17,25.95,.07,38.92,.07h32.93c11.29,0,11.42-.01,10.91-11.46-1.6-35.5-34.13-63.78-75.06-46.62-23.85,10-35.55,36.85-29.17,63.83,5.86,24.74,26.86,40.73,53.91,40.82,16.21,.05,30.4-4.99,41.3-17.53,5.13-5.9,5.06-5.96-1.61-9.67-2.32-1.29-4.66-2.57-6.92-3.96-1.52-.94-2.59-.95-3.74,.66-8.74,12.32-21.51,14.41-35.09,12.71-14.7-1.85-25.12-9.65-29.74-24.38-1.18-3.77-.32-4.52,3.36-4.47Zm-3.77-19.56c3.58-15.84,17.82-26.32,35.97-26.31,15.25,.01,28.23,10.8,31.7,25.98,.8,3.46,.02,4.21-3.35,4.15-10.13-.18-20.26-.06-30.39-.06-10.3-.01-20.59-.08-30.89,.04-3,.04-3.69-.9-3.04-3.8Z"/><path d="M543.88,142.07c.03,3.16-.72,4.28-4.11,4.32-13.97,.15-13.96,.27-13.97-13.89,0-16.31,.11-32.62-.03-48.92-.13-14.57-7.03-23.81-19.08-26.06-21.26-3.98-36.3,8.77-36.65,31.46-.27,17.46-.18,34.94,.02,52.41,.04,3.91-1,5.06-4.98,5.01-13.14-.16-13.14,.01-13.14-13.22,0-42.26,.05-84.53-.08-126.8-.02-4.25,.65-6.04,5.55-5.9,12.55,.37,12.56,.1,12.56,12.79V56.61c6.02-7.79,12.5-13.14,21.18-15.52,28.29-7.76,52.2,9.83,52.58,39.08,.27,20.63,.02,41.26,.15,61.9Z"/><path d="M433.19,129.52c-15.07,17.82-38.87,24.28-60.46,16.42-22.21-8.09-35.57-27.55-35.61-58.05,.33-16.79,10.57-34.11,31.41-43.43,20.99-9.39,41.22-6.52,59.04,8.8,3.43,2.95,5.95,6.67,8.32,10.51,1.31,2.1,1.4,3.63-1.16,4.69-.92,.38-1.75,.96-2.61,1.45-2.88,1.66-5.65,4.41-8.66,4.7-3.64,.36-3.87-4.54-6.13-6.76-10.89-10.69-23.78-13.17-37.73-8.65-13.62,4.42-21.7,14.42-23.7,28.71-2.84,20.32,8.2,38.19,26.55,41.92,15.44,3.14,29.12-.48,38.71-14.12,1.48-2.09,2.62-2.62,4.75-1.15,1.77,1.23,3.7,2.23,5.57,3.31q7.74,4.52,1.71,11.65Z"/><path d="M105.4,5.16c-.09,13.57,.07,13.58-13.33,13.58-7.99,0-15.99,.24-23.96-.1-4.46-.19-5.88,.96-5.85,5.68,.2,38.27,.13,76.55,.1,114.82-.01,8.23,.99,7.11-7.14,7.15-11.91,.06-11.91,.01-11.91-11.91,0-17.3,0-34.61,.01-51.92,0-10.01-.03-20.02-.03-30.03,0-9.46,.02-18.91,.11-28.37,.04-4.03-.94-5.53-5.23-5.42-11.14,.29-22.3-.01-33.45,.16-3.18,.05-4.55-.77-4.25-4.15C.87,10.21-1.3,4.49,1.29,1.61,3.95-1.34,9.77,.68,14.19,.66c28.79-.09,57.57,.02,86.36-.12,3.6-.02,4.88,.72,4.85,4.62Z"/></svg>